<?xml version="1.0" encoding="UTF-8" standalone="no"?>
<svg
   version="1.1"
   viewBox="0 0 1206.3237 1610.4887"
   id="svg165"
   sodipodi:docname="icon_source_ohne_text.svg"
   width="1206.3237"
   height="1610.4888"
   inkscape:version="1.4.3 (0d15f75, 2025-12-25)"
   xmlns:inkscape="http://www.inkscape.org/namespaces/inkscape"
   xmlns:sodipodi="http://sodipodi.sourceforge.net/DTD/sodipodi-0.dtd"
   xmlns="http://www.w3.org/2000/svg"
   xmlns:svg="http://www.w3.org/2000/svg">
  <defs
     id="defs165">
    <rect
       x="106.65124"
       y="1786.876"
       width="1204.5931"
       height="306.69095"
       id="rect166" />
  </defs>
  <sodipodi:namedview
     id="namedview165"
     pagecolor="#ffffff"
     bordercolor="#000000"
     borderopacity="0.25"
     inkscape:showpageshadow="2"
     inkscape:pageopacity="0.0"
     inkscape:pagecheckerboard="0"
     inkscape:deskcolor="#d1d1d1"
     inkscape:zoom="0.75582969"
     inkscape:cx="138.25866"
     inkscape:cy="998.24075"
     inkscape:window-width="3840"
     inkscape:window-height="2054"
     inkscape:window-x="-11"
     inkscape:window-y="-11"
     inkscape:window-maximized="1"
     inkscape:current-layer="svg165" />
  <path
     fill="#33633b"
     d="m 198.43028,1527.8969 a 0.48,0.48 0 0 0 -0.84,0.33 q 0.16,12.21 0.13,24.42 -0.03,13.66 -1.75,22.79 c -3.86,20.5 -20.91,34.89 -41.85,35.04 q -7.45,0.05 -27.54,-0.11 -15.03,-0.12 -17.84,-0.61 c -17.470003,-3.06 -30.930003,-17.16 -34.370003,-34.35 -1.35,-6.76 -1.33,-14.02 -1.34,-21.51 q -0.04,-97.97 0.01,-159.79 c 0.02,-13.78 2.75,-28.22 11.99,-39 q 9.3,-10.85 23.420003,-14.47 c 7.95,-2.03 17.27,-2.04 26.3,-2.9 a 1.04,1.05 84.5 0 0 0.95,-1.14 q -3.67,-39.71 -6.26,-80.58 c -0.33,-5.16 -0.9,-9.83 -1.42,-16.59 q -3.51,-45.83 -7.34,-91.82 c -0.58,-6.99 -0.99,-20.66 -2.17,-30.05 -0.68,-5.51 -0.75,-12.06 -1.35,-18.2 q -2.29,-23.67 -3.22,-37.82 c -0.53,-7.92 -1.54,-13.48 -1.75,-20.33 q -0.06,-1.92 -0.73,-8.16 c -1.03,-9.4 -1.36,-19.39 -2.08,-28.24 q -4.55,-56.30998 -6.89,-90.20998 c -1.52,-22.13 -3.090003,-39.63 -4.620003,-61.01 q -1.73,-24.17 -2.94,-37.24 -1.57,-16.9 -3.71,-48.98 -0.02,-0.39 -0.68,-8.78 -2.65,-33.88 -3.98,-54.38 c -1.43,-21.81 -3.33,-44.38 -5.05,-62.79 q -0.7,-7.48 -1.91,-25.14 -1.78,-26.12 -4.39,-53.92 -0.9,-9.53 -4.75,-63.78 -1.52,-21.47 -2.4,-32.44 c -2.34,-29.13 -3.46,-47.71 -5.93,-79.24 q -1.76,-22.47 -3.42,-46.85 a 1.86,1.86 0 0 0 -1.89,-1.73 c -14.86,0.18 -30.99,1.21 -43.26,-9.08 q -8.8400002,-7.42 -12.0600002,-18.27 -1.39999995,-4.71 -1.39999995,-13.89 0.01,-23.22 -0.10000000195,-47.46 c -0.019999998,-6.26 1.03999995195,-12.09 4.35999995195,-17.4 q 10.4300002,-16.68 31.2900002,-17.38 10.29,-0.35 19.63,0.05 a 1.1,1.11 3.2 0 0 1.14,-1.03 c 2.17,-31.38 14.81,-64.87 39.12,-86.46 q 11.360003,-10.08 23.430003,-16.68 25.25,-13.799997 55.18,-13.859997 101.89,-0.2 203,0.1 4.15,0.02 8.78,-0.27 a 1.6,1.6 0 0 0 1.51,-1.54 c 0.92,-28.54 11.95,-55.13 32.76,-73.76 17.73,-15.8799999 38.21,-21.20999992 61.68,-21.30999992 q 23.5,-0.1 222.02,-0.07 c 11.83,0 25.57,-0.04 36.27,2.60000002 q 19.96,4.91 34.74,17.0499999 28.71,23.58 35.23,60.21 1.43,8.09 2.22,15.74 a 1.58,1.58 0 0 0 1.57,1.41 q 138.4,-0.25 212.92002,0.02 31.11,0.11 57.87,15.559997 30.38,17.54 47.5,48.94 13.19,24.18 14.62,51.74 a 1.33,1.33 0 0 0 1.33,1.26 q 11.55,0.05 15.66,-0.02 9.58,-0.16 15.45,1.66 10.57,3.27 17.08,10.41 10.15,11.13 9.96,27.01 -0.33,27.1 -0.17,42.01 c 0.13,11.07 -1.53,20.82 -9.03,29.19 q -11.4,12.71 -28.51,13.22 -11.93,0.35 -21.66,0.13 a 1.91,1.92 2.8 0 0 -1.95,1.77 c -0.69,8.58 -0.77,17.28 -1.62,25.57 q -1.86,18.17 -3.57,42.19 c -1.01,14.22 -2.41,26.49 -3.35,39.73 -1.57,21.99 -3.74,43.91 -5.3,66.07 q -3,42.42 -6.4,81.77 c -0.52,6.08 -0.76,12.01 -1.45,20.78 q -7.22,91.34 -7.42,93.85 -5.93,75.04 -7.25,94.25 -0.5,7.14 -3.33,39.65 c -4.15,47.75 -7.98,100.43 -11.06,137.07 -2.53,30.02998 -4.62,60.12998 -7.2,92.45998 -0.7,8.76 -0.7,15.11 -1.88,22.44 q -0.6,3.79 -1.03,10.84 -1.41,23.25 -2.21,30.83 -1.43,13.6 -2.07,24.68 c -0.73,12.69 -1.93,21.76 -2.93,36.03 -1.12,15.92 -2.6,29.7 -3.7,43.64 -2.21,27.92 -5.86,64.27 -7.69,95.1 a 0.97,0.98 2.9 0 0 0.93,1.04 c 11.85,0.47 20.42,0.87 31.06,4.76 19.99,7.29 28.79,29.28 28.94,48.97 0.33,45.33 0.49,93.24 0.51,168 q 0,4.93 -0.86,13.06 c -1.33,12.55 -8.39,24.25 -19.34,30.71 -6.09,3.58 -13.07,6.43 -20.15,6.54 q -5.45,0.09 -38.25,0.17 c -9.21,0.03 -17.22,-1.24 -24.89,-5.76 q -13.97,-8.24 -18.98,-23.8 -2.17,-6.74 -2.49,-19.65 -0.51,-20.93 -0.52,-28.86 a 0.66,0.66 0 0 0 -1.06,-0.53 c -3.12002,2.34 -5.86002,5.17 -9.41002,7.35 q -23.61,14.48 -50.76,17.81 c -13.53,1.66 -25.19,2.1 -40.54,2.09 q -211.82,-0.16 -526.8,-0.03 c -23.5,0.01 -53.84,-0.32 -78.18,-0.02 -10.22,0.12 -16.91,-0.45 -27.06,-0.85 q -4.09,-0.16 -10.75,-1.15 c -21.72,-3.24 -43.55,-12.42 -58.51,-28.82 z m 437.99,-1431.379977 145.97,0.11 a 1.25,1.25 0 0 0 1.25,-1.36 q -0.25,-2.99 -1.18,-9.71 c -1.1,-7.96 -4.72,-15.44 -7.86,-22.17 -4.26,-9.11 -11.59,-16.8 -19.4,-22.72 q -7.42,-5.63 -16.24,-8.79 -9.22,-2.79 -15.83,-2.79 -107.35,-0.01 -190.24,0.21 -9.51,0.02 -55.72,-0.06 -23.96,-0.04 -40.9,15.99 c -13.83,13.09 -19.41,32.47 -20.28,50.88 a 0.77,0.77 0 0 0 0.77,0.8 z m 222.81,29.769997 q -20.91,-0.54 -42.1,-0.51 -50.01,0.05 -100.26,0.29 c -42.18,0.21 -80.43,-0.3 -116.34,0.04 -26.42,0.25 -50.45,-0.18 -81.6,-0.02 q -23.11,0.12 -61.19,-0.01 -53.17,-0.18 -73.11,-0.11 -5.7,0.02 -26.75,0.09 -52.2,0.17 -186,0.07 -15.01,-0.01 -28.27,5.21 -9.96,3.93 -15.31,7.21 -17.97,11.01 -29.670003,29.87 -5.74,9.24 -9.32,19.68 -4.28,12.48 -4.78,25.98 a 0.93,0.93 0 0 0 0.93,0.97 l 847.180003,-0.01 185.69002,-0.15 a 1.13,1.12 88.3 0 0 1.12,-1.2 q -0.91,-14.93 -6.75,-27.62 c -4.45,-9.67 -9.55,-19.38 -16.93,-27.41 q -7.34,-7.99 -10.18,-10.59 c -13.12,-12.05 -30.82,-20.57 -49.21,-21.62 q -13.8,-0.78 -16,-0.77 -85.58002,0.44 -156.50002,0.57 -2.2,0.01 -4.65,0.04 z m -361.05,117.01 q -162.16,0.06 -324.3,0.13 -56.78,0.02 -57.75,0.03 -34.660003,0.14 -70.000003,-0.04 c -6.65,-0.04 -18.51,-0.45 -18.42,9.02 q 0.15,16.32 -0.13,37.53 -0.13,10.75 1.23,13.23 3,5.47 11.59,5.69 c 29.32,0.75 67.540003,-0.01 98.100003,0.05 q 64.69,0.12 129.38,0.05 26.4,-0.03 52.79,0.05 l 309,0.19 q 39.36,0.13 78.71,0.3 1.23,0 2.35,-0.23 a 1.01,0.91 36.6 0 1 0.31,-0.03 q 6.77,0.11 48.34,0.06 124.15,-0.13 138.77,0.12 11.36,0.2 28.98,-0.08 11.86,-0.19 28.96,-0.18 c 5.5,0 14.08,-0.34 21.13,-0.19 15.2,0.32 30.23002,-0.02 45.29002,-0.07 q 28.92,0.67 57.72,0.31 c 20.63,-0.25 36.36,-0.12 56.58,0.15 9.18,0.13 21.64,-0.26 31.29,-0.42 q 8.99,-0.15 9.07,-9.11 0.17,-19.12 0.17,-40 c 0,-6.41 0.59,-12.53 -5.91,-15.23 q -3.98,-1.65 -10.55,-1.6 -27.62,0.21 -55.32,0.07 l -291.88002,0.12 z m -238.34,95.04 -170.950003,-0.15 a 1.19,1.18 3 0 0 -1.18,1.06 q -0.07,0.65 0.06,2.54 2.66,37.87 4.13,57.63 c 0.96,12.83 2.55,26.85 3.34,39.74 q 0.74,12.13 2.22,29.83 4.100003,49.26 5.800003,78.73 0.02,0.42 0.37,7.46 0.25,5.22 0.58,7.37 c 1.62,10.59 1.75,21.19 2.82,32.64 0.77,8.23 1.02,16.05 1.98,23.99 0.95,7.8 1.08,15.16 1.89,23.86 0.8,8.41 0.86,15.49 1.7,22.31 q 0.96,7.79 1.27,16.7 c 0.27,7.62 1.71,15.83 1.88,23.95 q 0.18,8.53 0.4,11.67 0.71,10.29 3.29,37.15 c 0.43,12.61 2.01,27.97 2.65,37.61 q 3.54,54.05 7.93,103.74 c 1.77,20.13 2.73,39.35 4.87,60.79 q 0.48,4.87 0.57,8.25 c 0.17,6.99 1.15,13.15 1.69,20.58 q 1.88,25.84998 2.82,36.06998 4.53,49.54 5.12,59.26 0.79,13.08 1.53,20.49 c 1.47,14.74 2.28,31.08 3.69,45.35 q 0.68,6.84 1.95,28.36 0.7,11.87 2.32,29.11 c 0.93,9.83 0.88,16.4 1.91,25.78 q 0.45,4.17 1.39,19.34 0.8,13.03 2.06,25.93 5.49,73.61 11.61,146.97 c 0.39,4.66 1.3,10.29 1.67,13.57 2.88,25.17 15.39,46.37 32.01,63.28 q 0.37,0.39 9.27,7.95 4.9,4.16 9.74,6.87 9.74,5.44 11.59,6.31 9.38,4.39 21.71,7.07 c 10.81,2.35 22.47,2.52 33.85,2.51 58.73,-0.04 138.97,0.54 177.99,0.13 33.97,-0.36 63.88,0.06 97.66,0.05 q 108.28,-0.02 216.55,0.04 c 25.98,-0.04 53.3,0.26 77.88,-0.09 18.48,-0.27 40.3,-0.01 61.41,-0.69 q 2.6,-0.08 6.39,-0.61 2.28,-0.32 6.38,-0.77 8.52,-0.94 12.92,-2.05 11.68,-2.96 24.93,-9.91 3.19,-1.67 7,-4.37 6.64,-4.7 6.74,-4.77 5.57,-4.22 10.1,-9.39 12.35002,-14.11 20.48002,-31.61 2.63,-5.68 4.96,-13.96 2.99,-10.65 3.56,-14.4 2.34,-15.49 3.59,-31.92 1.51,-19.89 1.61,-20.66 0.48,-3.57 1.98,-20.63 c 0.89,-10.14 1.13,-19.89 2.37,-29.16 q 1.44,-10.79 2.18,-21.82 c 0.85,-12.57 2.44,-23.54 3.11,-36.11 q 0.71,-13.56 2.22,-28.66 c 2.19,-21.91 3.6,-44.48 5.38,-66.39 0.83,-10.13 2.27,-19.92 2.85,-29.55 0.87,-14.51 2.54,-28.61 3.38,-42.96 0.93,-15.78 3.27,-36.2 3.98,-48.21 1.22,-20.45 3.27,-40.89 4.75,-63.24998 q 0.69,-10.6 2.93,-35.71 1.6,-17.9 2.98,-35.73 2.11,-27.46 4.64,-60 c 1.7,-22 3.79,-43.96 5.26,-65.94 0.85,-12.65 1.78,-22.14 2.58,-34.19 q 0.56,-8.47 2.07,-25.64 3.13,-35.74 3.39,-40.71 1.35,-25.35 3.71,-51.54 3.36,-37.34 4.29,-51.49 0.52,-7.94 4.61,-59.44 0.64,-8.04 2.22,-30.59 1.01,-14.33 2.72,-33.2 2.86,-31.56 7.26,-91.62 0.76,-10.46 2.03,-21.2 1.16,-9.9 1.56,-21.22 a 1.5,1.5 0 0 0 -1.41,-1.56 c -10.1,-0.61 -21.82,0.06 -34.89,-0.02 q -43.33,-0.27 -85.31002,-0.26 -18.09,0 -36,0.07 -9.36,0.04 -14.02,0.5 -41.67,-0.7 -83.31,-0.58 -57.72,0.17 -57.86,0.17 -188.66,-0.12 -191.81,-0.13 -38.61,-0.11 -77.66,0.21 c -6.93,0.06 -15.65,-0.29 -22.34,-0.27 q -84.59,0.2 -168.84,0.14 c -11.65,-0.01 -27.09,-0.34 -40.66,-0.24 q -21.33,0.16 -42.04,0.24 z"
     id="path108" />
  <path
     fill="#79bc73"
     d="m 738.96028,31.876923 c -14.59,10.75 -30.5,21.54 -44.17,31.43 q -24.37,17.66 -50.65,32.67 a 1.86,1.76 27.3 0 1 -0.83,0.24 l -6.89,0.3 -219.66,0.39 a 0.77,0.77 0 0 1 -0.77,-0.8 c 0.87,-18.41 6.45,-37.79 20.28,-50.88 q 16.94,-16.03 40.9,-15.99 46.21,0.08 55.72,0.06 82.89,-0.22 190.24,-0.21 6.61,0 15.83,2.79 z"
     id="path109" />
  <path
     fill="#65b264"
     d="m 636.42028,96.516923 6.89,-0.3 a 1.86,1.76 27.3 0 0 0.83,-0.24 q 26.28,-15.01 50.65,-32.67 c 13.67,-9.89 29.58,-20.68 44.17,-31.43 q 8.82,3.16 16.24,8.79 c 7.81,5.92 15.14,13.61 19.4,22.72 3.14,6.73 6.76,14.21 7.86,22.17 q 0.93,6.72 1.18,9.71 a 1.25,1.25 0 0 1 -1.25,1.36 z"
     id="path110" />
  <path
     fill="#4ba855"
     d="m 932.64028,215.03692 q -1.52,-3.23 -2.22,-6.7 -1.26,-6.25 -1.45,-6.88 c -4.77,-15.89 -13.64,-29.69 -24.34,-42.04 -10.29,-11.87 -23.15,-22 -37.32,-27.73 q -4.13,-1.67 -8.08,-5.4 2.45,-0.03 4.65,-0.04 70.92,-0.13 156.50002,-0.57 2.2,-0.01 16,0.77 c 18.39,1.05 36.09,9.57 49.21,21.62 q 2.84,2.6 10.18,10.59 c 7.38,8.03 12.48,17.74 16.93,27.41 q 5.84,12.69 6.75,27.62 a 1.13,1.12 88.3 0 1 -1.12,1.2 z"
     id="path111" />
  <path
     fill="#79bc73"
     d="m 859.23028,126.28692 q 3.95,3.73 8.08,5.4 c 14.17,5.73 27.03,15.86 37.32,27.73 10.7,12.35 19.57,26.15 24.34,42.04 q 0.19,0.63 1.45,6.88 0.7,3.47 2.22,6.7 l -847.180003,0.01 a 0.93,0.93 0 0 1 -0.93,-0.97 q 0.5,-13.5 4.78,-25.98 3.58,-10.44 9.32,-19.68 11.700003,-18.86 29.670003,-29.87 5.35,-3.28 15.31,-7.21 13.26,-5.22 28.27,-5.21 133.8,0.1 186,-0.07 21.05,-0.07 26.75,-0.09 19.94,-0.07 73.11,0.11 38.08,0.13 61.19,0.01 c 31.15,-0.16 55.18,0.27 81.6,0.02 35.91,-0.34 74.16,0.17 116.34,-0.04 q 50.25,-0.24 100.26,-0.29 21.19,-0.03 42.1,0.51 z m -545.68,12.47 c -25.47,0.25 -55.86,-0.28 -83.67,-0.02 -14.22,0.13 -31.23,-0.33 -47.52,0 q -6.73,0.13 -17.09,-0.01 c -10.47,-0.13 -18.6,1.2 -26.69,5.36 q -10.09,5.19 -13.86,8.17 -4.86,3.86 -8.21,7.21 c -4.69,4.7 -10.08,12.01 -12.91,16.42 q -7.440003,11.57 -8.220003,25.79 a 1.23,1.23 0 0 0 1.35,1.29 q 4.380003,-0.43 8.400003,-0.5 c 34.95,-0.64 65.86,-0.11 106.19,-0.51 18.9,-0.19 37.91,0.47 57.54,0.31 a 2.35,2.34 8.4 0 0 2.21,-1.64 q 11.65,-37.08 42.69,-60.66 0.28,-0.21 0.31,-0.62 0.03,-0.59 -0.52,-0.59 z"
     id="path112" />
  <path
     fill="#9fce94"
     d="m 313.55028,138.75692 q 0.55,0 0.52,0.59 -0.03,0.41 -0.31,0.62 -31.04,23.58 -42.69,60.66 a 2.35,2.34 8.4 0 1 -2.21,1.64 c -19.63,0.16 -38.64,-0.5 -57.54,-0.31 -40.33,0.4 -71.24,-0.13 -106.19,0.51 q -4.02,0.07 -8.400003,0.5 a 1.23,1.23 0 0 1 -1.35,-1.29 q 0.78,-14.22 8.220003,-25.79 c 2.83,-4.41 8.22,-11.72 12.91,-16.42 q 3.35,-3.35 8.21,-7.21 3.77,-2.98 13.86,-8.17 c 8.09,-4.16 16.22,-5.49 26.69,-5.36 q 10.36,0.14 17.09,0.01 c 16.29,-0.33 33.3,0.13 47.52,0 27.81,-0.26 58.2,0.27 83.67,0.02 z"
     id="path113" />
  <path
     fill="#65b264"
     d="m 813.68028,243.21692 c -6.12,17.05 -17.95,28.56 -33.4,38 q -11.54,7.06 -27.77,15.55 -16.44,8.6 -25.88,12.09 a 2.92,3.18 36.9 0 1 -1.08,0.2 l -95.88,0.17 -309,-0.19 q 11.35,-0.27 22.71,-0.19 6.4,0.05 20.64,-2.8 c 7.19,-1.43 15.36,-5.67 21.69,-7.78 9.68,-3.22 20.5,-5.98 29.89,-9.34 q 25.73,-9.23 50.64,-23.23 c 11.48,-6.45 23.7,-12.73 31.94,-22.4 z"
     id="path114" />
  <path
     fill="#4ba855"
     d="m 1105.5603,243.09692 c 5.17,4 7.13,7.94 2.75,13.18 -5.55,6.65 -14.04,12.14 -21.63,17.19 q -16.67,11.09 -29.77,18.93 -16.34,9.78 -34.4,16.53 c -15.06,0.05 -30.09002,0.39 -45.29002,0.07 -7.05,-0.15 -15.63,0.19 -21.13,0.19 q -17.1,-0.01 -28.96,0.18 -17.62,0.28 -28.98,0.08 -14.62,-0.25 -138.77,-0.12 -41.57,0.05 -48.34,-0.06 a 1.01,0.91 36.6 0 0 -0.31,0.03 q -1.12,0.23 -2.35,0.23 -39.35,-0.17 -78.71,-0.3 l 95.88,-0.17 a 2.92,3.18 36.9 0 0 1.08,-0.2 q 9.44,-3.49 25.88,-12.09 16.23,-8.49 27.77,-15.55 c 15.45,-9.44 27.28,-20.95 33.4,-38 z"
     id="path115" />
  <path
     fill="#46904c"
     d="m 1022.5103,308.92692 q 18.06,-6.75 34.4,-16.53 13.1,-7.84 29.77,-18.93 c 7.59,-5.05 16.08,-10.54 21.63,-17.19 4.38,-5.24 2.42,-9.18 -2.75,-13.18 q 27.7,0.14 55.32,-0.07 6.57,-0.05 10.55,1.6 c 6.5,2.7 5.91,8.82 5.91,15.23 q 0,20.88 -0.17,40 -0.08,8.96 -9.07,9.11 c -9.65,0.16 -22.11,0.55 -31.29,0.42 -20.22,-0.27 -35.95,-0.4 -56.58,-0.15 q -28.8,0.36 -57.72,-0.31 z"
     id="path116" />
  <path
     fill="#79bc73"
     d="m 498.18028,243.29692 c -8.24,9.67 -20.46,15.95 -31.94,22.4 q -24.91,14 -50.64,23.23 c -9.39,3.36 -20.21,6.12 -29.89,9.34 -6.33,2.11 -14.5,6.35 -21.69,7.78 q -14.24,2.85 -20.64,2.8 -11.36,-0.08 -22.71,0.19 -26.39,-0.08 -52.79,-0.05 -64.69,0.07 -129.38,-0.05 c -30.56,-0.06 -68.780003,0.7 -98.100003,-0.05 q -8.59,-0.22 -11.59,-5.69 -1.36,-2.48 -1.23,-13.23 0.28,-21.21 0.13,-37.53 c -0.09,-9.47 11.77,-9.06 18.42,-9.02 q 35.34,0.18 70.000003,0.04 0.97,-0.01 57.75,-0.03 162.14,-0.07 324.3,-0.13 z"
     id="path117" />
  <path
     fill="#4ba855"
     d="m 944.36028,338.79692 q 0.54,8.56 0.4,17.05 c -0.56,34.04 -3.37,65.16 -5.48,97.77 -1.13,17.42 -3.03,36.23 -3.87,51.11 q -1.39,24.76 -3.36,54.44 c -0.72,10.83 -0.47,19.67 -1.43,28.66 q -1.09,10.08 -1.68,21.44 -3.25,62.73 -6.26,103.43 -1.79,24.23 -1.82,27.11 -0.03,2.55 -1.75,7.8 a 0.98,0.99 3.4 0 1 -0.71,0.64 l -10.57,2.31 a 0.32,0.24 26.6 0 1 -0.11,0.02 q -1.94,0.1 -3.88,0.18 l -63.66,-0.04 a 0.6,0.6 0 0 0 -0.6,0.59 q -0.14,25.07 -0.46,32.3 c -0.39,8.9 -0.94,15 -4.38,22.1 q -9.21,18.99 -28.98,24.83 c -6.3,1.86 -14.02,2.2 -20.71,1.7 q -12.54,-0.95 -22.4,-8.17 c -10.6,-7.77 -19.34,-21.18 -19.35,-34.48 q -0.03,-33.48 -0.05,-37.77 a 1.19,1.19 0 0 0 -1.19,-1.18 h -285.64 a 0.88,0.88 0 0 0 -0.88,0.89 q 0.24,15.32 -0.26,35.54 c -0.55,22.54 -15.91,40.88 -38.26,44.64 q -27.5,4.63 -45.19,-14.01 -2.6,-2.74 -4.88,-6.17 -3.65,-5.49 -4.21,-6.8 -3.39,-7.8 -3.63,-17.13 -0.26,-9.82 -0.41,-36.2 a 0.61,0.6 2.6 0 0 -0.56,-0.6 q -1.26,-0.1 -3.51,-0.11 -62.98,-0.11 -63,-0.11 -6.86,-0.02 -13.13,1.66 -1.26,-0.28 -0.83,-1.42 0.28,-0.75 0.53,-1.49 a 2.55,2.37 54.8 0 0 0.13,-0.96 l -2.71,-47.21 c -1.85,-38.28 -4.04,-75.29 -5.93,-114.87 q -1.41,-29.52 -2.7,-49.66 c -0.89,-13.77 -1.61,-34.96 -2.66,-52.35 q -3.18,-52.41 -4.72,-82.92 -1.44,-28.62 -1.35,-58.13 0,-1.69 1.58,-4.89 20.71,-0.08 42.04,-0.24 c 13.57,-0.1 29.01,0.23 40.66,0.24 q 84.25,0.06 168.84,-0.14 c 6.69,-0.02 15.41,0.33 22.34,0.27 q 39.05,-0.32 77.66,-0.21 3.15,0.01 191.81,0.13 0.14,0 57.86,-0.17 41.64,-0.12 83.31,0.58 z m -383.43,62.83 a 0.35,0.35 0 0 0 -0.09,0.66 q 2.33,1.04 5.16,1.39 a 3.21,3.8 63.3 0 1 0.71,0.17 q 12.66,4.55 18.48,10.22 8,7.78 15.73,19.86 c 10.66,16.64 15,24.11 23.26,34.67 1.38,1.76 2.1,3.37 -0.1,4.76 q -11.24,7.11 -20.64,13.82 -1.95,1.39 -2.73,3.45 a 1.85,1.85 0 0 0 1.51,2.49 q 3.39,0.4 7.66,0.45 10.08,0.1 52.75,0.2 5.49,0.02 8.62,-1.07 c 3.37,-1.17 6.14,-5.39 7.79,-8.41 q 6.77,-12.42 7.43,-13.53 c 7.55,-12.61 13.84,-25.1 21.28,-37.53 0.74,-1.23 1.44,-3.11 0.76,-4.5 -1.79,-3.64 -7.23,-0.87 -9.55,0.74 q -7.92,5.48 -14.79,9.29 -2.97,1.64 -5.18,-1.39 -6.72,-9.24 -16.95,-24.41 -2.75,-4.06 -7.04,-7.15 c -5.07,-3.64 -12.09,-3.8 -18.12,-3.97 q -14.76,-0.43 -25.09,-0.32 c -15.81,0.17 -28.03,-0.38 -41.65,0.19 a 5.54,5.34 46.1 0 1 -1.04,-0.04 q -4.96,-0.59 -8.17,-0.04 z m -0.03,101.99 c 5.04,-6.03 7.61,-13.27 11.76,-20.04 q 8.89,-14.53 17.57,-29.38 c 1.47,-2.52 5.71,-6.76 4.47,-10.37 q -6.49,-18.91 -23.32,-27.96 -6.52,-3.51 -12.08,-4.09 c -5.89,-0.61 -13.79,-0.16 -18.15,3.84 q -3.71,3.4 -6.45,7.85 -9.54,15.51 -9.96,16.21 -6.96,11.68 -14.77,24.03 -0.53,0.84 -0.91,2.9 c -0.81,4.4 9.68,10.28 13.57,12.63 6.64,4.02 14.23,9.65 21.27,14.49 q 8.26,5.68 11.21,8.16 1.47,1.24 3.97,2.2 a 1.63,1.62 30.4 0 0 1.82,-0.47 z m 151.2,-9.23 a 2.65,2.66 43.2 0 0 -2.71,0.09 q -11.03,7.03 -24.25,14.91 c -10.24,6.11 -16.79,10.02 -22.42,14.68 a 1.94,1.85 88.7 0 0 -0.41,0.45 q -1.87,2.8 -0.36,5.75 c 3.7,7.23 7.73,13.63 12.07,21.27 q 3.63,6.39 6.63,10.42 c 3.94,5.29 7.82,12.23 13.49,17.88 q 3.77,3.76 9.5,4.21 8.04,0.63 13.06,-0.12 c 6.97,-1.04 11.83,-3.83 17.27,-8.16 7.66,-6.1 11.87,-13.92 12.26,-23.73 a 5.49,5.37 41 0 0 -0.11,-1.35 c -1.25,-6.02 -5.62,-12.49 -9.28,-17.98 q -3.9,-5.85 -6.03,-9.4 -5.14,-8.59 -15.41,-25.71 -1.24,-2.07 -3.3,-3.21 z m -218.63,141.73 c -3,-11.96 -1.59,-20.71 4.1,-31.75 q 5.7,-11.05 7.3,-13.99 c 1.84,-3.37 3.52,-7.2 5.36,-10.37 q 5.81,-9.98 11.43,-21.83 0.77,-1.64 2.22,-1.9 a 1.4,1.45 55.6 0 1 0.95,0.16 q 11.47,6.42 21.18,12.52 2.66,1.67 5.29,1.98 a 1.57,1.57 0 0 0 1.67,-2.09 q -1.07,-3.03 -1.81,-4.53 -7.82,-15.67 -20.06,-44.84 -3.82,-9.09 -6.27,-13.73 -2.02,-3.83 -6.98,-3.91 -19.78,-0.36 -63.21,-0.27 -2.31,0.01 -4.14,0.35 a 1.58,1.59 89.2 0 0 -1.26,1.29 q -0.55,3.24 2.07,5.06 14.82,10.31 15.8,10.97 a 3.34,3.32 23.1 0 1 1.39,3.44 q -0.41,2 -1.24,3.56 -5.36,10.12 -9.49,18.23 c -2.5,4.89 -4.24,12.05 -2.67,17.43 q 3.92,13.38 11.47,26.84 12.55,22.35 20.13,38.3 c 1.61,3.38 3.54,6.39 5.84,9.52 a 0.52,0.52 0 0 0 0.93,-0.44 z m 252.33,-59.25 a 0.41,0.41 0 0 0 -0.71,-0.28 q -4.51,5.03 -6.58,6.86 -6.4,5.65 -17.77,8.24 -8.35,1.9 -16.87,1.78 -23.66,-0.34 -52.66,-0.24 a 1.79,1.78 0 0 1 -1.79,-1.78 v -27.33 a 1.39,1.4 86.9 0 0 -1.55,-1.38 q -1.9,0.21 -3.39,2.25 -5.02,6.87 -7.54,11.45 c -2.05,3.73 -5.89,8.73 -8.59,13.3 q -7.25,12.23 -14.76,24.32 c -3.28,5.3 -7.12,10.92 -3.74,17.32 q 2.71,5.16 3.16,5.87 22.73,35.6 28.39,44.12 1.73,2.61 5.54,2.15 a 1.17,1.2 13.7 0 0 0.82,-0.51 q 0.87,-1.3 0.87,-2.92 0.09,-15.45 0.35,-20.22 a 1.78,1.78 0 0 1 1.56,-1.67 q 4.16,-0.52 10.09,-0.49 10.83,0.06 21.46,0.16 7.83,0.08 13.21,-2.18 a 6.95,6.75 14.4 0 0 1.47,-0.84 q 5.99,-4.54 9.39,-9.73 c 5.53,-8.46 12.12,-18.97 17.32,-28.21 q 9.3,-16.52 17.56,-29.85 a 8.26,8.13 70.1 0 0 0.85,-1.85 q 1.26,-3.83 3.77,-7.3 a 0.69,0.72 62.2 0 0 0.14,-0.42 z m -234.66,20.02 q -3.48,6.02 -4.56,7.64 a 4.33,4.7 69.2 0 0 -0.44,0.88 q -4.25,11.66 -4.41,24.85 -0.09,8.21 3.08,14.36 6.56,12.74 23.08,12.85 13.64,0.1 50.24,0.27 4.34,0.02 7.34,-0.63 a 3.35,3.35 0 0 0 2.58,-2.72 q 0.6,-3.55 0.62,-8.28 0.16,-41.22 0.18,-44 c 0.01,-3.27 0.09,-7.51 -3.44,-8.27 q -3.02,-0.64 -3.53,-0.63 c -11.71,0.1 -21.77,-0.4 -32.33,-0.02 q -11.72,0.43 -29.33,0.28 c -4.38,-0.04 -6.88,-0.37 -9.08,3.42 z m 304.2965,117.236 a 23.9,23.9 0 0 0 -24.0663,-23.7326 l -2.3,0.0161 a 23.9,23.9 0 0 0 -23.7325,24.0663 l 0.5058,72.4582 a 23.9,23.9 0 0 0 24.0663,23.7326 l 2.3,-0.0161 a 23.9,23.9 0 0 0 23.7325,-24.0663 z m -383.3095,0.37 a 24.05,24.05 0 0 0 -24.092,-24.008 l -2.38,0.004 a 24.05,24.05 0 0 0 -24.008,24.0919 l 0.126,72.1799 a 24.05,24.05 0 0 0 24.092,24.008 l 2.38,-0.004 a 24.05,24.05 0 0 0 24.008,-24.0919 z"
     id="path118" />
  <path
     fill="#79bc73"
     d="m 259.84028,338.33692 q -1.58,3.2 -1.58,4.89 -0.09,29.51 1.35,58.13 1.54,30.51 4.72,82.92 c 1.05,17.39 1.77,38.58 2.66,52.35 q 1.29,20.14 2.7,49.66 c 1.89,39.58 4.08,76.59 5.93,114.87 q -10.04,9.95 -20.32,19.58 -6.15,5.77 -13.87,7.12 c -8.19,1.45 -14.92,2.36 -22.73,4.71 -13.26,3.99 -23.94,6.75 -40.87,9.91 -8.48,1.59 -20.7,2.76 -29.42,5.18 q -4.21,1.16 -15.64,5.46 -5.12,1.92 -13.33,1.7 -2.58,-26.86 -3.29,-37.15 -0.22,-3.14 -0.4,-11.67 c -0.17,-8.12 -1.61,-16.33 -1.88,-23.95 q -0.31,-8.91 -1.27,-16.7 c -0.84,-6.82 -0.9,-13.9 -1.7,-22.31 -0.81,-8.7 -0.94,-16.06 -1.89,-23.86 -0.96,-7.94 -1.21,-15.76 -1.98,-23.99 -1.07,-11.45 -1.2,-22.05 -2.82,-32.64 q -0.33,-2.15 -0.58,-7.37 -0.35,-7.04 -0.37,-7.46 -1.7,-29.47 -5.800003,-78.73 -1.48,-17.7 -2.22,-29.83 c -0.79,-12.89 -2.38,-26.91 -3.34,-39.74 q -1.47,-19.76 -4.13,-57.63 -0.13,-1.89 -0.06,-2.54 a 1.19,1.18 3 0 1 1.18,-1.06 z"
     id="path119" />
  <path
     fill="#46904c"
     d="m 783.59028,1530.2269 q 20.64,-0.04 41.29,0.05 3.92,0.01 8.36,-0.74 a 1.75,1.73 18 0 0 0.9,-0.45 c 3.36,-3.26 7.14,-6.17 10.02,-9.3 q 19.32,-21.03 25.07,-49.6 1.23,-6.07 1.48,-8.22 c 1.74,-14.56 3.86,-30.79 4.5,-46.37 q 0.31,-7.64 1,-15.12 1.13,-12.32 2.56,-38.08 c 0.21,-3.71 0.88,-8.25 1.22,-11.54 a 1.2,1.2 0 0 0 -0.77,-1.25 q -2.41,-0.92 -5.6,-1.03 c -7.35,-0.25 -16.47,0.27 -24.7,0.1 -26.57,-0.55 -44.37,-0.2 -72.37,-0.4 q -15.56,-0.11 -44.92,0.14 c -37.71,0.34 -61.16,-0.02 -100.35,0.06 -33.93,0.07 -48.77,0.37 -79.98,0.04 -25.77,-0.26 -52.25,0.49 -80.58,-0.03 q -9.19,-0.16 -31.66,0 c -25.12,0.18 -45.99,-0.28 -71.93,0.06 -24.15,0.32 -47.93,-0.18 -71.91,-0.15 -7.58,0 -13.71,-0.95 -20.53,-4.12 a 0.63,0.61 12.9 0 1 -0.36,-0.56 v -0.31 a 0.56,0.56 0 0 1 0.69,-0.55 l 2.38,0.54 q 8.34,3.16 15.73,3.18 69.3,0.18 352.55,0.05 c 64.07,-0.03 121.66,-0.13 215.45,-0.07 q 31.04,0.02 45.26,-0.13 c 29.96,-0.33 49.13,-23.46 49.13,-52.57 q 0.06,-373.02998 0.09,-486.97998 0,-14.4 -1.49,-20.37 -4.19,-16.7 -19.01,-27.35 c -9.39,-6.75 -19.73,-8.81 -31.27,-8.4 q 1.94,-0.08 3.88,-0.18 a 0.32,0.24 26.6 0 0 0.11,-0.02 l 10.57,-2.31 a 0.98,0.99 3.4 0 0 0.71,-0.64 q 1.72,-5.25 1.75,-7.8 0.03,-2.88 1.82,-27.11 3.01,-40.7 6.26,-103.43 0.59,-11.36 1.68,-21.44 c 0.96,-8.99 0.71,-17.83 1.43,-28.66 q 1.97,-29.68 3.36,-54.44 c 0.84,-14.88 2.74,-33.69 3.87,-51.11 2.11,-32.61 4.92,-63.73 5.48,-97.77 q 0.14,-8.49 -0.4,-17.05 4.66,-0.46 14.02,-0.5 17.91,-0.07 36,-0.07 41.98002,-0.01 85.31002,0.26 c 13.07,0.08 24.79,-0.59 34.89,0.02 a 1.5,1.5 0 0 1 1.41,1.56 q -0.4,11.32 -1.56,21.22 -1.27,10.74 -2.03,21.2 -4.4,60.06 -7.26,91.62 -1.71,18.87 -2.72,33.2 -1.58,22.55 -2.22,30.59 -4.09,51.5 -4.61,59.44 -0.93,14.15 -4.29,51.49 -2.36,26.19 -3.71,51.54 -0.26,4.97 -3.39,40.71 -1.51,17.17 -2.07,25.64 c -0.8,12.05 -1.73,21.54 -2.58,34.19 -1.47,21.98 -3.56,43.94 -5.26,65.94 q -2.53,32.54 -4.64,60 -1.38,17.83 -2.98,35.73 -2.24,25.11 -2.93,35.71 c -1.48,22.35998 -3.53,42.79998 -4.75,63.24998 -0.71,12.01 -3.05,32.43 -3.98,48.21 -0.84,14.35 -2.51,28.45 -3.38,42.96 -0.58,9.63 -2.02,19.42 -2.85,29.55 -1.78,21.91 -3.19,44.48 -5.38,66.39 q -1.51,15.1 -2.22,28.66 c -0.67,12.57 -2.26,23.54 -3.11,36.11 q -0.74,11.03 -2.18,21.82 c -1.24,9.27 -1.48,19.02 -2.37,29.16 q -1.5,17.06 -1.98,20.63 -0.1,0.77 -1.61,20.66 -1.25,16.43 -3.59,31.92 -0.57,3.75 -3.56,14.4 -2.33,8.28 -4.96,13.96 -8.13,17.5 -20.48002,31.61 -4.53,5.17 -10.1,9.39 -0.1,0.07 -6.74,4.77 -3.81,2.7 -7,4.37 -13.25,6.95 -24.93,9.91 -4.4,1.11 -12.92,2.05 -4.1,0.45 -6.38,0.77 -3.79,0.53 -6.39,0.61 c -21.11,0.68 -42.93,0.42 -61.41,0.69 -24.58,0.35 -51.9,0.05 -77.88,0.09 z"
     id="path120" />
  <path
     fill="#33633b"
     d="m 560.93028,401.62692 q 3.21,-0.55 8.17,0.04 a 5.54,5.34 46.1 0 0 1.04,0.04 c 13.62,-0.57 25.84,-0.02 41.65,-0.19 q 10.33,-0.11 25.09,0.32 c 6.03,0.17 13.05,0.33 18.12,3.97 q 4.29,3.09 7.04,7.15 10.23,15.17 16.95,24.41 2.21,3.03 5.18,1.39 6.87,-3.81 14.79,-9.29 c 2.32,-1.61 7.76,-4.38 9.55,-0.74 0.68,1.39 -0.02,3.27 -0.76,4.5 -7.44,12.43 -13.73,24.92 -21.28,37.53 q -0.66,1.11 -7.43,13.53 c -1.65,3.02 -4.42,7.24 -7.79,8.41 q -3.13,1.09 -8.62,1.07 -42.67,-0.1 -52.75,-0.2 -4.27,-0.05 -7.66,-0.45 a 1.85,1.85 0 0 1 -1.51,-2.49 q 0.78,-2.06 2.73,-3.45 9.4,-6.71 20.64,-13.82 c 2.2,-1.39 1.48,-3 0.1,-4.76 -8.26,-10.56 -12.6,-18.03 -23.26,-34.67 q -7.73,-12.08 -15.73,-19.86 -5.82,-5.67 -18.48,-10.22 a 3.21,3.8 63.3 0 0 -0.71,-0.17 q -2.83,-0.35 -5.16,-1.39 a 0.35,0.35 0 0 1 0.09,-0.66 z"
     id="path121" />
  <path
     fill="#33633b"
     d="m 560.90028,503.61692 a 1.63,1.62 30.4 0 1 -1.82,0.47 q -2.5,-0.96 -3.97,-2.2 -2.95,-2.48 -11.21,-8.16 c -7.04,-4.84 -14.63,-10.47 -21.27,-14.49 -3.89,-2.35 -14.38,-8.23 -13.57,-12.63 q 0.38,-2.06 0.91,-2.9 7.81,-12.35 14.77,-24.03 0.42,-0.7 9.96,-16.21 2.74,-4.45 6.45,-7.85 c 4.36,-4 12.26,-4.45 18.15,-3.84 q 5.56,0.58 12.08,4.09 16.83,9.05 23.32,27.96 c 1.24,3.61 -3,7.85 -4.47,10.37 q -8.68,14.85 -17.57,29.38 c -4.15,6.77 -6.72,14.01 -11.76,20.04 z"
     id="path122" />
  <path
     fill="#33633b"
     d="m 712.10028,494.38692 q 2.06,1.14 3.3,3.21 10.27,17.12 15.41,25.71 2.13,3.55 6.03,9.4 c 3.66,5.49 8.03,11.96 9.28,17.98 a 5.49,5.37 41 0 1 0.11,1.35 c -0.39,9.81 -4.6,17.63 -12.26,23.73 -5.44,4.33 -10.3,7.12 -17.27,8.16 q -5.02,0.75 -13.06,0.12 -5.73,-0.45 -9.5,-4.21 c -5.67,-5.65 -9.55,-12.59 -13.49,-17.88 q -3,-4.03 -6.63,-10.42 c -4.34,-7.64 -8.37,-14.04 -12.07,-21.27 q -1.51,-2.95 0.36,-5.75 a 1.94,1.85 88.7 0 1 0.41,-0.45 c 5.63,-4.66 12.18,-8.57 22.42,-14.68 q 13.22,-7.88 24.25,-14.91 a 2.65,2.66 43.2 0 1 2.71,-0.09 z"
     id="path123" />
  <path
     fill="#33633b"
     d="m 493.47028,636.11692 a 0.52,0.52 0 0 1 -0.93,0.44 c -2.3,-3.13 -4.23,-6.14 -5.84,-9.52 q -7.58,-15.95 -20.13,-38.3 -7.55,-13.46 -11.47,-26.84 c -1.57,-5.38 0.17,-12.54 2.67,-17.43 q 4.13,-8.11 9.49,-18.23 0.83,-1.56 1.24,-3.56 a 3.34,3.32 23.1 0 0 -1.39,-3.44 q -0.98,-0.66 -15.8,-10.97 -2.62,-1.82 -2.07,-5.06 a 1.58,1.59 89.2 0 1 1.26,-1.29 q 1.83,-0.34 4.14,-0.35 43.43,-0.09 63.21,0.27 4.96,0.08 6.98,3.91 2.45,4.64 6.27,13.73 12.24,29.17 20.06,44.84 0.74,1.5 1.81,4.53 a 1.57,1.57 0 0 1 -1.67,2.09 q -2.63,-0.31 -5.29,-1.98 -9.71,-6.1 -21.18,-12.52 a 1.4,1.45 55.6 0 0 -0.95,-0.16 q -1.45,0.26 -2.22,1.9 -5.62,11.85 -11.43,21.83 c -1.84,3.17 -3.52,7 -5.36,10.37 q -1.6,2.94 -7.3,13.99 c -5.69,11.04 -7.1,19.79 -4.1,31.75 z"
     id="path124" />
  <path
     fill="#33633b"
     d="m 745.80028,576.86692 v 0.62 a 0.69,0.72 62.2 0 1 -0.14,0.42 q -2.51,3.47 -3.77,7.3 a 8.26,8.13 70.1 0 1 -0.85,1.85 q -8.26,13.33 -17.56,29.85 c -5.2,9.24 -11.79,19.75 -17.32,28.21 q -3.4,5.19 -9.39,9.73 a 6.95,6.75 14.4 0 1 -1.47,0.84 q -5.38,2.26 -13.21,2.18 -10.63,-0.1 -21.46,-0.16 -5.93,-0.03 -10.09,0.49 a 1.78,1.78 0 0 0 -1.56,1.67 q -0.26,4.77 -0.35,20.22 0,1.62 -0.87,2.92 a 1.17,1.2 13.7 0 1 -0.82,0.51 q -3.81,0.46 -5.54,-2.15 -5.66,-8.52 -28.39,-44.12 -0.45,-0.71 -3.16,-5.87 c -3.38,-6.4 0.46,-12.02 3.74,-17.32 q 7.51,-12.09 14.76,-24.32 c 2.7,-4.57 6.54,-9.57 8.59,-13.3 q 2.52,-4.58 7.54,-11.45 1.49,-2.04 3.39,-2.25 a 1.39,1.4 86.9 0 1 1.55,1.38 v 27.33 a 1.79,1.78 0 0 0 1.79,1.78 q 29,-0.1 52.66,0.24 8.52,0.12 16.87,-1.78 11.37,-2.59 17.77,-8.24 2.07,-1.83 6.58,-6.86 a 0.41,0.41 0 0 1 0.71,0.28 z"
     id="path125" />
  <path
     fill="#33633b"
     d="m 511.14028,596.88692 c 2.2,-3.79 4.7,-3.46 9.08,-3.42 q 17.61,0.15 29.33,-0.28 c 10.56,-0.38 20.62,0.12 32.33,0.02 q 0.51,-0.01 3.53,0.63 c 3.53,0.76 3.45,5 3.44,8.27 q -0.02,2.78 -0.18,44 -0.02,4.73 -0.62,8.28 a 3.35,3.35 0 0 1 -2.58,2.72 q -3,0.65 -7.34,0.63 -36.6,-0.17 -50.24,-0.27 -16.52,-0.11 -23.08,-12.85 -3.17,-6.15 -3.08,-14.36 0.16,-13.19 4.41,-24.85 a 4.33,4.7 69.2 0 1 0.44,-0.88 q 1.08,-1.62 4.56,-7.64 z"
     id="path126" />
  <rect
     fill="#ffffff"
     x="760.33142"
     y="695.89825"
     transform="rotate(-0.4)"
     width="50.099998"
     height="120.26"
     rx="23.9"
     id="rect126" />
  <rect
     fill="#ffffff"
     x="380.39957"
     y="691.19604"
     transform="rotate(-0.1)"
     width="50.48"
     height="120.28"
     rx="24.049999"
     id="rect127" />
  <path
     fill="#65b264"
     d="m 275.62028,701.15692 2.71,47.21 a 2.55,2.37 54.8 0 1 -0.13,0.96 q -0.25,0.74 -0.53,1.49 -0.43,1.14 0.83,1.42 c -20.69,6.88 -34.1,24.78 -34.04,46.63 q 0.35,144.69 0.26,167.49 -0.23,61.80998 -0.26,122.99998 -0.05,89.52 0.02,179.04 l -0.03,-12.56 a 0.57,0.57 0 0 0 -0.48,-0.56 c -8.29,-1.46 -15.17,3.89 -20.46,9.32 q -7.87,8.09 -14.64,13.84 -7.89,6.69 -15.11,7.8 -10.1,1.55 -21,-1.55 -7.86,-2.24 -12.82,-9.21 -1.26,-12.9 -2.06,-25.93 -0.94,-15.17 -1.39,-19.34 c -1.03,-9.38 -0.98,-15.95 -1.91,-25.78 q -1.62,-17.24 -2.32,-29.11 -1.27,-21.52 -1.95,-28.36 c -1.41,-14.27 -2.22,-30.61 -3.69,-45.35 q -0.74,-7.41 -1.53,-20.49 -0.59,-9.72 -5.12,-59.26 -0.94,-10.22 -2.82,-36.06998 c -0.54,-7.43 -1.52,-13.59 -1.69,-20.58 q -0.09,-3.38 -0.57,-8.25 c -2.14,-21.44 -3.1,-40.66 -4.87,-60.79 q -4.39,-49.69 -7.93,-103.74 c -0.64,-9.64 -2.22,-25 -2.65,-37.61 q 8.21,0.22 13.33,-1.7 11.43,-4.3 15.64,-5.46 c 8.72,-2.42 20.94,-3.59 29.42,-5.18 16.93,-3.16 27.61,-5.92 40.87,-9.91 7.81,-2.35 14.54,-3.26 22.73,-4.71 q 7.72,-1.35 13.87,-7.12 10.28,-9.63 20.32,-19.58 z"
     id="path127" />
  <path
     fill="#ffffff"
     d="m 903.84028,750.75692 c 11.54,-0.41 21.88,1.65 31.27,8.4 q 14.82,10.65 19.01,27.35 1.49,5.97 1.49,20.37 -0.03,113.95 -0.09,486.97998 c 0,29.11 -19.17,52.24 -49.13,52.57 q -14.22,0.15 -45.26,0.13 c -93.79,-0.06 -151.38,0.04 -215.45,0.07 q -283.25,0.13 -352.55,-0.05 -7.39,-0.02 -15.73,-3.18 -10.08,-3.93 -18.13,-11.67 c -11.87,-11.41 -14.99,-24.43 -14.86,-40.37 q 0.09,-11.48 0.07,-22.96 -0.07,-89.52 -0.02,-179.04 0.03,-61.19 0.26,-122.99998 0.09,-22.8 -0.26,-167.49 c -0.06,-21.85 13.35,-39.75 34.04,-46.63 q 6.27,-1.68 13.13,-1.66 0.02,0 63,0.11 2.25,0.01 3.51,0.11 a 0.61,0.6 2.6 0 1 0.56,0.6 q 0.15,26.38 0.41,36.2 0.24,9.33 3.63,17.13 0.56,1.31 4.21,6.8 2.28,3.43 4.88,6.17 17.69,18.64 45.19,14.01 c 22.35,-3.76 37.71,-22.1 38.26,-44.64 q 0.5,-20.22 0.26,-35.54 a 0.88,0.88 0 0 1 0.88,-0.89 h 285.64 a 1.19,1.19 0 0 1 1.19,1.18 q 0.02,4.29 0.05,37.77 c 0.01,13.3 8.75,26.71 19.35,34.48 q 9.86,7.22 22.4,8.17 c 6.69,0.5 14.41,0.16 20.71,-1.7 q 19.77,-5.84 28.98,-24.83 c 3.44,-7.1 3.99,-13.2 4.38,-22.1 q 0.32,-7.23 0.46,-32.3 a 0.6,0.6 0 0 1 0.6,-0.59 z m -522.071,139.1358 a 1.73,1.73 0 0 0 -1.7331,-1.727 l -104.5998,0.1826 a 1.73,1.73 0 0 0 -1.727,1.733 l 0.1819,104.2398 a 1.73,1.73 0 0 0 1.7331,1.727 l 104.5998,-0.1826 a 1.73,1.73 0 0 0 1.727,-1.733 z m 104.9426,-0.2615 a 1.32,1.32 0 0 0 -1.3177,-1.3223 l -93.8599,-0.1638 a 1.32,1.32 0 0 0 -1.3223,1.3177 l -0.1833,104.9998 a 1.32,1.32 0 0 0 1.3177,1.3223 l 93.8599,0.1638 a 1.32,1.32 0 0 0 1.3223,-1.3177 z m 104.9284,106.3557 a 1.58,1.58 0 0 0 1.58,-1.58 v -104.62 a 1.58,1.58 0 0 0 -1.58,-1.58 h -95.69 a 1.58,1.58 0 0 0 -1.58,1.58 v 104.62 a 1.58,1.58 0 0 0 1.58,1.58 z m 105.9377,-106.7137 a 1.09,1.09 0 0 0 -1.0919,-1.0881 l -93.8598,0.1638 a 1.09,1.09 0 0 0 -1.0881,1.0919 l 0.1844,105.6598 a 1.09,1.09 0 0 0 1.0919,1.0881 l 93.8598,-0.1638 a 1.09,1.09 0 0 0 1.0881,-1.0919 z m 105.9904,0.2085 a 1.3,1.3 0 0 0 -1.3023,-1.2977 l -95.1199,0.166 a 1.3,1.3 0 0 0 -1.2977,1.3023 l 0.1837,105.2798 a 1.3,1.3 0 0 0 1.3023,1.2977 l 95.1199,-0.166 a 1.3,1.3 0 0 0 1.2977,-1.3023 z m 122.1536,0.2144 a 1.2,1.2 0 0 0 -1.1979,-1.2021 l -111.2199,-0.1941 a 1.2,1.2 0 0 0 -1.202,1.1979 l -0.1836,105.1599 a 1.2,1.2 0 0 0 1.1979,1.2021 l 111.2199,0.1941 a 1.2,1.2 0 0 0 1.202,-1.1979 z m -544.1617,115.40078 a 1.18,1.18 0 0 0 -1.18,-1.18 h -105.28 a 1.18,1.18 0 0 0 -1.18,1.18 v 95.14 a 1.18,1.18 0 0 0 1.18,1.18 h 105.28 a 1.18,1.18 0 0 0 1.18,-1.18 z m 104.5954,-0.804 a 0.29,0.29 0 0 0 -0.2905,-0.2895 l -95.7198,0.1671 a 0.29,0.29 0 0 0 -0.2895,0.2905 l 0.169,96.8199 a 0.29,0.29 0 0 0 0.2905,0.2895 l 95.7198,-0.1671 a 0.29,0.29 0 0 0 0.2895,-0.2905 z m 106.8646,0.574 a 0.97,0.97 0 0 0 -0.97,-0.97 h -96.96 a 0.97,0.97 0 0 0 -0.97,0.97 v 95.62 a 0.97,0.97 0 0 0 0.97,0.97 h 96.96 a 0.97,0.97 0 0 0 0.97,-0.97 z m 104.3776,0.5864 a 1.48,1.48 0 0 0 -1.4826,-1.4774 l -92.8999,0.1621 a 1.48,1.48 0 0 0 -1.4774,1.4826 l 0.1647,94.3799 a 1.48,1.48 0 0 0 1.4826,1.4774 l 92.8999,-0.1621 a 1.48,1.48 0 0 0 1.4774,-1.4826 z m 102.1624,95.3536 q 0.09,-0.38 0.88,0.16 -2.43,2.93 -6.82,6.63 -2.91,2.44 -6.18,2.23 -4.9,-0.47 -11.81,-0.39 -19.02,0.24 -65.99,0.29 -1.25,0 -2.87,0.53 a 1,1.01 84.6 0 0 -0.67,0.8 q -0.3,1.9 0.15,3.75 l -9.89,8 0.96,-12.19 a 0.76,0.77 2.4 0 0 -0.76,-0.83 h -93.65 a 1.27,1.28 0 0 0 -1.27,1.28 v 93.71 a 1.53,1.53 0 0 0 1.53,1.53 h 92.73 a 1.53,1.53 0 0 0 1.53,-1.52 q 0.22,-21.14 -0.01,-44.68 -0.05,-5.37 -0.89,-10.57 7.32,5.17 9.53,11.25 l -0.08,44.3 a 1.36,1.36 0 0 0 1.36,1.36 h 95.56 a 0.74,0.75 89.6 0 0 0.75,-0.75 c -0.17,-15.49 0.44,-34.6 -0.63,-53.8 q -0.17,-1.86 0.99,-3.15 3.88,-4.26 8.09,-6.89 l -0.09,63.7 a 0.68,0.68 0 0 0 0.68,0.68 h 112.06 a 0.83,0.82 0 0 0 0.83,-0.82 v -94.54 a 0.91,0.91 0 0 0 -0.89,-0.91 c -22.38,-0.44 -44.08,-0.14 -64.31,-0.22 q -2.39,-0.01 -6.5,-0.26 -3.13,-0.19 -6.49,-0.21 2.66,-3.21 6.1,-6.07 2.39,-1.98 4.57,-2.3 l 66.92,0.81 a 0.56,0.56 0 0 0 0.57,-0.56 v -96.23 a 0.69,0.7 0 0 0 -0.69,-0.7 h -112.25 a 0.65,0.65 0 0 0 -0.65,0.65 l 0.23,83.77 c -0.62,4.2 -5.49,7.45 -8.85,9.48 l 0.08,-93.03 a 1.01,1 0.6 0 0 -0.99,-1 q -13.97,-0.22 -28.36,-0.02 c -22.09,0.31 -42.23,0.16 -63.94,-0.14 q -0.89,-0.01 -4.19,0.66 a 0.6,0.6 0 0 0 -0.47,0.62 q 0.42,8.03 0.42,19.15 0,53.28 -0.18,76.62 a 0.47,0.47 0 0 0 0.47,0.48 q 35.78,-0.41 73.79,0.07 4.75,0.06 9.81,-0.19 4.92,-0.23 9.78,-0.54 z m -313.26,9.72 a 0.79,0.79 0 0 0 -0.79,-0.79 h -94.9 a 0.79,0.79 0 0 0 -0.79,0.79 v 94.9 a 0.79,0.79 0 0 0 0.79,0.79 h 94.9 a 0.79,0.79 0 0 0 0.79,-0.79 z m -104.9123,0.1765 a 1.11,1.11 0 0 0 -1.112,-1.1081 l -104.9998,0.1833 a 1.11,1.11 0 0 0 -1.1081,1.1119 l 0.1645,94.2599 a 1.11,1.11 0 0 0 1.112,1.1081 l 104.9998,-0.1833 a 1.11,1.11 0 0 0 1.1081,-1.1119 z m 211.5623,0.2735 a 1.25,1.25 0 0 0 -1.25,-1.25 h -96.24 a 1.25,1.25 0 0 0 -1.25,1.25 v 93.84 a 1.25,1.25 0 0 0 1.25,1.25 h 96.24 a 1.25,1.25 0 0 0 1.25,-1.25 z m 0.2277,104.4162 a 0.32,0.32 0 0 0 -0.3194,-0.3205 l -98.0598,-0.1712 a 0.32,0.32 0 0 0 -0.3206,0.3194 l -0.1756,100.6399 a 0.32,0.32 0 0 0 0.3194,0.3205 l 98.0598,0.1712 a 0.32,0.32 0 0 0 0.3206,-0.3194 z m 104.3653,0.3201 a 0.79,0.79 0 0 0 -0.7914,-0.7886 l -94.3999,0.1648 a 0.79,0.79 0 0 0 -0.7886,0.7913 l 0.1739,99.6599 a 0.79,0.79 0 0 0 0.7914,0.7886 l 94.3999,-0.1648 a 0.79,0.79 0 0 0 0.7886,-0.7913 z m 15.387,-0.6863 -6.04,0.05 a 0.88,0.88 0 0 0 -0.87,0.88 v 99.53 a 0.78,0.78 0 0 0 0.78,0.78 h 95.69 a 1.24,1.24 0 0 0 1.24,-1.24 l -0.3,-98.2 q 0.09,-1.16 -0.25,-1.82 a 0.46,0.46 0 0 0 -0.43,-0.26 z m 99.1,0.78 v 99.14 a 1.36,1.35 89.8 0 0 1.36,1.36 q 38.75,-0.2 85.49,-0.03 c 10.17,0.04 18.64,-2.14 23.55,-11.8 1.74,-3.44 2.34,-7.65 2.59,-11.49 q 0.66,-10.44 0.54,-26.88 -0.21,-26.67 0.26,-50.6 a 0.48,0.48 0 0 0 -0.48,-0.49 h -112.53 a 0.78,0.79 0 0 0 -0.78,0.79 z m -430.9,-0.85 h -105.67 a 1,1 0 0 0 -1,0.91 q -0.17,2.02 -0.14,4.29 0.17,15.17 -0.05,51.95 -0.08,14.11 -0.09,14.86 -0.13,7.68 1.17,11.66 c 2.77,8.43 7.47,14.22 15.41,16.67 q 3.27,1.01 11.85,1.01 43.85,0.01 78.76,-0.04 a 0.22,0.22 0 0 0 0.22,-0.22 v -100.64 a 0.46,0.45 0 0 0 -0.46,-0.45 z m 105.6367,1.0244 a 0.89,0.89 0 0 0 -0.8884,-0.8915 l -94.8799,-0.1656 a 0.89,0.89 0 0 0 -0.8915,0.8884 l -0.1736,99.4799 a 0.89,0.89 0 0 0 0.8884,0.8915 l 94.8799,0.1656 a 0.89,0.89 0 0 0 0.8915,-0.8884 z"
     id="path128" />
  <rect
     fill="#4ba855"
     x="272.15549"
     y="888.8277"
     transform="rotate(-0.1)"
     width="108.06"
     height="107.7"
     rx="1.73"
     id="rect128" />
  <rect
     fill="#4ba855"
     x="391.76379"
     y="887.46039"
     transform="rotate(0.1)"
     width="96.5"
     height="107.64"
     rx="1.3200001"
     id="rect129" />
  <path
     fill="#4ba855"
     d="m 591.64028,995.98692 h -95.69 a 1.58,1.58 0 0 1 -1.58,-1.58 v -104.62 a 1.58,1.58 0 0 1 1.58,-1.58 h 95.69 a 1.58,1.58 0 0 1 1.58,1.58 v 104.62 a 1.58,1.58 0 0 1 -1.58,1.58 z m -77.73,-77.83 q -0.07,0.29 -0.25,2.45 -0.06,0.71 -0.08,48.29 0,2.95 0.64,5.28 a 3.38,3.38 0 0 0 2.71,2.43 q 2.05,0.33 4.97,0.37 5.25,0.06 50.98,0.01 2.12,0 4.09,-0.81 a 0.99,1 84.7 0 0 0.6,-0.71 q 0.49,-2.39 0.47,-3.36 -0.42,-19.31 -0.19,-40.73 0.05,-5.09 -0.27,-11.38 c -0.22,-4.35 -4.5,-4.48 -7.92,-4.47 q -41.95,0.05 -45.78,0.06 -4.64,0 -8.37,0.93 a 2.17,2.19 89.1 0 0 -1.6,1.64 z"
     id="path129" />
  <path
     fill="#4ba855"
     d="m 697.76238,994.93302 a 1.09,1.09 0 0 1 -1.0881,1.0919 l -93.8598,0.1638 a 1.09,1.09 0 0 1 -1.0919,-1.0881 l -0.1844,-105.6598 a 1.09,1.09 0 0 1 1.0881,-1.0919 l 93.8598,-0.1638 a 1.09,1.09 0 0 1 1.0919,1.0881 z m -16.3621,-74.9061 a 4.51,4.51 0 0 0 -4.51,-4.51 h -54.4 a 4.51,4.51 0 0 0 -4.51,4.51 v 52.88 a 4.51,4.51 0 0 0 4.51,4.51 h 54.4 a 4.51,4.51 0 0 0 4.51,-4.51 z"
     id="path130" />
  <path
     fill="#4ba855"
     d="m 803.75208,994.76152 a 1.3,1.3 0 0 1 -1.2977,1.3023 l -95.1199,0.166 a 1.3,1.3 0 0 1 -1.3023,-1.2977 l -0.1837,-105.2798 a 1.3,1.3 0 0 1 1.2977,-1.3023 l 95.1199,-0.166 a 1.3,1.3 0 0 1 1.3023,1.2977 z m -18.0086,-75.1506 a 4.1,4.1 0 0 0 -4.1071,-4.0928 l -56.0199,0.0977 a 4.1,4.1 0 0 0 -4.0929,4.1072 l 0.0935,53.5399 a 4.1,4.1 0 0 0 4.1071,4.0928 l 56.0199,-0.098 a 4.1,4.1 0 0 0 4.0929,-4.1072 z"
     id="path131" />
  <path
     fill="#4ba855"
     d="m 925.53838,994.85602 a 1.2,1.2 0 0 1 -1.202,1.1979 l -111.2199,-0.1941 a 1.2,1.2 0 0 1 -1.1979,-1.2021 l 0.1836,-105.1599 a 1.2,1.2 0 0 1 1.202,-1.1979 l 111.2199,0.1941 a 1.2,1.2 0 0 1 1.1979,1.2021 z m -32.3993,-74.7121 a 4.75,4.75 0 0 0 -4.7665,-4.7334 l -55.3397,0.1932 a 4.75,4.75 0 0 0 -4.7334,4.7665 l 0.182,52.1197 a 4.75,4.75 0 0 0 4.7665,4.7334 l 55.3397,-0.1932 a 4.75,4.75 0 0 0 4.7334,-4.7665 z"
     id="path132" />
  <rect
     fill="#ffffff"
     x="617.98022"
     y="915.51691"
     width="63.419998"
     height="61.900002"
     rx="4.5100002"
     id="rect132" />
  <rect
     fill="#ffffff"
     x="719.91724"
     y="916.88092"
     transform="rotate(-0.1)"
     width="64.220001"
     height="61.740002"
     rx="4.0999999"
     id="rect133" />
  <rect
     fill="#ffffff"
     x="825.08179"
     y="918.50592"
     transform="rotate(-0.2)"
     width="64.839996"
     height="61.619999"
     rx="4.75"
     id="rect134" />
  <path
     fill="#ffffff"
     d="m 513.91028,918.15692 a 2.17,2.19 89.1 0 1 1.6,-1.64 q 3.73,-0.93 8.37,-0.93 3.83,-0.01 45.78,-0.06 c 3.42,-0.01 7.7,0.12 7.92,4.47 q 0.32,6.29 0.27,11.38 -0.23,21.42 0.19,40.73 0.02,0.97 -0.47,3.36 a 0.99,1 84.7 0 1 -0.6,0.71 q -1.97,0.81 -4.09,0.81 -45.73,0.05 -50.98,-0.01 -2.92,-0.04 -4.97,-0.37 a 3.38,3.38 0 0 1 -2.71,-2.43 q -0.64,-2.33 -0.64,-5.28 0.02,-47.58 0.08,-48.29 0.18,-2.16 0.25,-2.45 z"
     id="path134" />
  <path
     fill="#4ba855"
     d="m 381.56028,1100.2369 a 1.18,1.18 0 0 1 -1.18,1.18 h -105.28 a 1.18,1.18 0 0 1 -1.18,-1.18 v -95.14 a 1.18,1.18 0 0 1 1.18,-1.18 h 105.28 a 1.18,1.18 0 0 1 1.18,1.18 z m -79.91,-21.37 a 4.32,4.32 0 0 0 4.32,4.32 h 55.11 a 4.32,4.32 0 0 0 4.32,-4.32 v -53.13 a 4.32,4.32 0 0 0 -4.32,-4.32 h -55.11 a 4.32,4.32 0 0 0 -4.32,4.32 z"
     id="path135" />
  <path
     fill="#4ba855"
     d="m 486.32468,1101.1128 a 0.29,0.29 0 0 1 -0.2895,0.2905 l -95.7198,0.1671 a 0.29,0.29 0 0 1 -0.2905,-0.2895 l -0.169,-96.8199 a 0.29,0.29 0 0 1 0.2895,-0.2905 l 95.7198,-0.1671 a 0.29,0.29 0 0 1 0.2905,0.2895 z m -16.5015,-75.6314 a 3.94,3.94 0 0 0 -3.9469,-3.9331 l -55.7599,0.097 a 3.94,3.94 0 0 0 -3.9331,3.9469 l 0.0941,53.9599 a 3.94,3.94 0 0 0 3.9469,3.9331 l 55.7599,-0.097 a 3.94,3.94 0 0 0 3.9331,-3.9469 z"
     id="path136" />
  <path
     fill="#4ba855"
     d="m 593.02028,1100.4869 a 0.97,0.97 0 0 1 -0.97,0.97 h -96.96 a 0.97,0.97 0 0 1 -0.97,-0.97 v -95.62 a 0.97,0.97 0 0 1 0.97,-0.97 h 96.96 a 0.97,0.97 0 0 1 0.97,0.97 z m -19.8,-79.01 -56.04,0.1 a 4.12,4.12 0 0 0 -4.12,4.13 l 0.09,51.69 a 6.05,6.04 89.9 0 0 6.05,6.04 l 52.2,-0.1 a 6.05,6.04 89.9 0 0 6.03,-6.06 l -0.09,-51.69 a 4.12,4.12 0 0 0 -4.12,-4.11 z"
     id="path137" />
  <path
     fill="#4ba855"
     d="m 697.56258,1099.8332 a 1.48,1.48 0 0 1 -1.4774,1.4826 l -92.8999,0.1621 a 1.48,1.48 0 0 1 -1.4826,-1.4774 l -0.1647,-94.3799 a 1.48,1.48 0 0 1 1.4774,-1.4826 l 92.8999,-0.1621 a 1.48,1.48 0 0 1 1.4826,1.4774 z m -16.4288,-73.9814 a 4.31,4.31 0 0 0 -4.3175,-4.3024 l -54.5399,0.095 a 4.31,4.31 0 0 0 -4.3025,4.3176 l 0.0929,53.2399 a 4.31,4.31 0 0 0 4.3175,4.3024 l 54.5399,-0.095 a 4.31,4.31 0 0 0 4.3025,-4.3176 z"
     id="path138" />
  <path
     fill="#4ba855"
     d="m 803.34028,1098.1269 q 0.28,0.63 -0.58,0.63 -1.54,0.15 -3.2,2.05 -4.86,0.31 -9.78,0.54 -5.06,0.25 -9.81,0.19 -38.01,-0.48 -73.79,-0.07 a 0.47,0.47 0 0 1 -0.47,-0.48 q 0.18,-23.34 0.18,-76.62 0,-11.12 -0.42,-19.15 a 0.6,0.6 0 0 1 0.47,-0.62 q 3.3,-0.67 4.19,-0.66 c 21.71,0.3 41.85,0.45 63.94,0.14 q 14.39,-0.2 28.36,0.02 a 1.01,1 0.6 0 1 0.99,1 z m -17.725,-71.3761 a 5.05,5.05 0 0 0 -5.0588,-5.0412 l -54.2599,0.095 a 5.05,5.05 0 0 0 -5.0412,5.0588 l 0.0899,51.4799 a 5.05,5.05 0 0 0 5.0588,5.0412 l 54.2599,-0.095 a 5.05,5.05 0 0 0 5.0412,-5.0588 z"
     id="path139" />
  <path
     fill="#4ba855"
     d="m 858.06028,1100.9069 q 7.8,-9.28 16.83,-17.13 6.04,-0.06 12.23,-0.2 5.33,-0.12 5.35,-5.46 0.08,-22.43 0.43,-47.5 0.05,-3.72 -0.35,-6.54 a 2.44,2.44 0 0 0 -1.71,-1.99 q -1.84,-0.54 -3.21,-0.53 -42.11,0.36 -44.34,0.31 -7.8,-0.15 -11.58,0.35 c -3.62,0.47 -3.6,4.94 -3.6,7.89 0.03,15.26 0.57,30.52 -0.1,45.64 q -1.11,2.12 -2.23,3.03 -6.18,5.07 -9.61,8.1 c -0.9,0.8 -1.58,0.75 -2.62,0.61 a 0.91,0.9 20 0 0 -0.89,0.41 l -0.47,0.75 -0.23,-83.77 a 0.65,0.65 0 0 1 0.65,-0.65 h 112.25 a 0.69,0.7 0 0 1 0.69,0.7 v 96.23 a 0.56,0.56 0 0 1 -0.57,0.56 z"
     id="path140" />
  <path
     fill="#ffffff"
     d="m 301.65028,1078.8669 v -53.13 a 4.32,4.32 0 0 1 4.32,-4.32 h 55.11 a 4.32,4.32 0 0 1 4.32,4.32 v 53.13 a 4.32,4.32 0 0 1 -4.32,4.32 h -55.11 a 4.32,4.32 0 0 1 -4.32,-4.32 z"
     id="path141" />
  <rect
     fill="#ffffff"
     x="404.39264"
     y="1022.3599"
     transform="rotate(-0.1)"
     width="63.639999"
     height="61.84"
     rx="3.9400001"
     id="rect141" />
  <path
     fill="#ffffff"
     d="m 573.22028,1021.4769 a 4.12,4.12 0 0 1 4.12,4.11 l 0.09,51.69 a 6.05,6.04 89.9 0 1 -6.03,6.06 l -52.2,0.1 a 6.05,6.04 89.9 0 1 -6.05,-6.04 l -0.09,-51.69 a 4.12,4.12 0 0 1 4.12,-4.13 z"
     id="path142" />
  <rect
     fill="#ffffff"
     x="616.18225"
     y="1022.7291"
     transform="rotate(-0.1)"
     width="63.16"
     height="61.860001"
     rx="4.3099999"
     id="rect142" />
  <rect
     fill="#ffffff"
     x="719.46204"
     y="1023.0704"
     transform="rotate(-0.1)"
     width="64.360001"
     height="61.580002"
     rx="5.0500002"
     id="rect143" />
  <path
     fill="#ffffff"
     d="m 874.89028,1083.7769 c 2.97,-4.26 4.46,-8.49 2.15,-13.25 q -0.58,-1.18 -4.2,-5.52 -2.23,-2.68 -7.17,-7.96 -7.26,-7.77 -15.19,-0.58 -5.48,4.96 -10.91,9.79 -0.06,0.06 -4.32,4.27 -3.18,3.14 -7.24,5.22 c 0.67,-15.12 0.13,-30.38 0.1,-45.64 0,-2.95 -0.02,-7.42 3.6,-7.89 q 3.78,-0.5 11.58,-0.35 2.23,0.05 44.34,-0.31 1.37,-0.01 3.21,0.53 a 2.44,2.44 0 0 1 1.71,1.99 q 0.4,2.82 0.35,6.54 -0.35,25.07 -0.43,47.5 -0.02,5.34 -5.35,5.46 -6.19,0.14 -12.23,0.2 z"
     id="path143" />
  <path
     fill="#33633b"
     d="m 874.89028,1083.7769 q -9.03,7.85 -16.83,17.13 -2.18,0.32 -4.57,2.3 -3.44,2.86 -6.1,6.07 -1.25,1.12 -2.84,2.76 -5.55,5.72 -13.68,12.01 -1.57,1.22 -3.51,3.12 -1.15,1.12 -3.5,3.16 -3.13,2.73 -11.76,11.53 -4.21,2.63 -8.09,6.89 -1.16,1.29 -0.99,3.15 l -0.3,2.49 a 0.13,0.14 5.2 0 1 -0.13,0.12 h -0.28 a 0.31,0.31 0 0 1 -0.31,-0.33 q 0.11,-1.52 -0.98,-2.13 a 0.76,0.75 42.7 0 0 -0.78,0.03 q -5.67,3.85 -11.43,9.49 c -9.08,8.88 -19.63,17.55 -28.12,25.39 -2.37,2.19 -5.32,4.48 -7.6,6.08 -4.85,3.42 -12.02,4.38 -16.69,-0.02 q -10.33,-9.74 -20.01,-21.66 -2.8,-3.44 -10.33,-10.57 -2.21,-6.08 -9.53,-11.25 -0.57,-1.99 -1.45,-2.87 c -4.01,-3.98 -7.76,-8.28 -5.8,-14.05 q 0.41,-1.23 3.45,-4.94 2.03,-2.48 3.63,-4.87 l 9.89,-8 q 6.1,0.85 9.3,4.13 6.61,6.76 13.17,12.07 l 16.31,17.88 a 1.96,1.97 49.5 0 0 2.69,0.2 q 9.5,-7.65 19.39,-17.92 2.78,-1.28 6.1,-4.48 6.89,-6.61 13.87,-13.11 1.62,-1.5 0.36,-3.75 3.27,0.21 6.18,-2.23 4.39,-3.7 6.82,-6.63 l 2.32,-2.21 q 0.86,0 0.58,-0.63 c 3.36,-2.03 8.23,-5.28 8.85,-9.48 l 0.47,-0.75 a 0.91,0.9 20 0 1 0.89,-0.41 c 1.04,0.14 1.72,0.19 2.62,-0.61 q 3.43,-3.03 9.61,-8.1 1.12,-0.91 2.23,-3.03 4.06,-2.08 7.24,-5.22 4.26,-4.21 4.32,-4.27 5.43,-4.83 10.91,-9.79 7.93,-7.19 15.19,0.58 4.94,5.28 7.17,7.96 3.62,4.34 4.2,5.52 c 2.31,4.76 0.82,8.99 -2.15,13.25 z"
     id="path144" />
  <path
     fill="#9fce94"
     d="m 802.76028,1098.7569 -2.32,2.21 q -0.79,-0.54 -0.88,-0.16 1.66,-1.9 3.2,-2.05 z"
     id="path145" />
  <path
     fill="#4ba855"
     d="m 847.39028,1109.2769 q 3.36,0.02 6.49,0.21 4.11,0.25 6.5,0.26 c 20.23,0.08 41.93,-0.22 64.31,0.22 a 0.91,0.91 0 0 1 0.89,0.91 v 94.54 a 0.83,0.82 0 0 1 -0.83,0.82 h -112.06 a 0.68,0.68 0 0 1 -0.68,-0.68 l 0.09,-63.7 q 8.63,-8.8 11.76,-11.53 2.35,-2.04 3.5,-3.16 1.94,-1.9 3.51,-3.12 8.13,-6.29 13.68,-12.01 1.59,-1.64 2.84,-2.76 z m 12.69,79.53 q 20.07,-0.01 21.05,-0.01 3.96,0.04 8.34,-0.79 a 2.66,2.66 0 0 0 2.08,-2.01 q 0.56,-2.43 0.54,-5.39 -0.19,-26.22 -0.1,-50.1 a 2.32,2.33 9.3 0 0 -1.59,-2.22 q -1.3,-0.44 -3.53,-0.55 c -6.79,-0.34 -15.69,-0.01 -26.83,-0.01 -11.14,0.01 -20.04,-0.3 -26.83,0.05 q -2.23,0.11 -3.53,0.55 a 2.33,2.32 80.6 0 0 -1.59,2.22 q 0.13,23.88 -0.03,50.1 -0.02,2.96 0.55,5.39 a 2.66,2.66 0 0 0 2.08,2.01 q 4.38,0.82 8.34,0.78 0.98,-0.01 21.05,-0.02 z"
     id="path146" />
  <path
     fill="#4ba855"
     d="m 486.30028,1205.4269 a 0.79,0.79 0 0 1 -0.79,0.79 h -94.9 a 0.79,0.79 0 0 1 -0.79,-0.79 v -94.9 a 0.79,0.79 0 0 1 0.79,-0.79 h 94.9 a 0.79,0.79 0 0 1 0.79,0.79 z m -17.28,-77.04 a 1.03,1.02 83.2 0 0 -0.79,-0.63 q -3.8,-0.59 -7.84,-0.54 -9.68,0.11 -45.25,0.04 -4.4,-0.01 -7.55,0.6 a 2.33,2.34 84.6 0 0 -1.89,2.28 q -0.3,48.3 -0.32,51.22 -0.03,3.15 0.83,6.06 a 1.25,1.27 86.8 0 0 1.01,0.89 q 3.73,0.58 6.91,0.52 3.68,-0.06 45.99,0.04 3.05,0.01 4.55,-0.13 c 4.45,-0.41 4.68,-4.82 4.68,-8.88 q 0.07,-41.77 0.11,-49.5 0.01,-0.84 -0.44,-1.97 z"
     id="path147" />
  <path
     fill="#4ba855"
     d="m 787.44028,1109.8269 q 1.26,2.25 -0.36,3.75 -6.98,6.5 -13.87,13.11 -3.32,3.2 -6.1,4.48 l -38.39,-0.16 q -6.56,-5.31 -13.17,-12.07 -3.2,-3.28 -9.3,-4.13 -0.45,-1.85 -0.15,-3.75 a 1,1.01 84.6 0 1 0.67,-0.8 q 1.62,-0.53 2.87,-0.53 46.97,-0.05 65.99,-0.29 6.91,-0.08 11.81,0.39 z"
     id="path148" />
  <path
     fill="#4ba855"
     d="m 381.55248,1204.9633 a 1.11,1.11 0 0 1 -1.1081,1.1119 l -104.9998,0.1833 a 1.11,1.11 0 0 1 -1.112,-1.1081 l -0.1645,-94.2599 a 1.11,1.11 0 0 1 1.1081,-1.1119 l 104.9998,-0.1833 a 1.11,1.11 0 0 1 1.112,1.1081 z m -16.2722,-73.1464 a 4.61,4.61 0 0 0 -4.61,-4.61 h -54.44 a 4.61,4.61 0 0 0 -4.61,4.61 v 52.36 a 4.61,4.61 0 0 0 4.61,4.61 h 54.44 a 4.61,4.61 0 0 0 4.61,-4.61 z"
     id="path149" />
  <path
     fill="#4ba855"
     d="m 592.95028,1204.8169 a 1.25,1.25 0 0 1 -1.25,1.25 h -96.24 a 1.25,1.25 0 0 1 -1.25,-1.25 v -93.84 a 1.25,1.25 0 0 1 1.25,-1.25 h 96.24 a 1.25,1.25 0 0 1 1.25,1.25 z m -15.2549,-72.5338 a 4.92,4.92 0 0 0 -4.9114,-4.9286 l -54.5199,-0.095 a 4.92,4.92 0 0 0 -4.9286,4.9114 l -0.0903,51.7399 a 4.92,4.92 0 0 0 4.9114,4.9286 l 54.5199,0.095 a 4.92,4.92 0 0 0 4.9286,-4.9114 z"
     id="path150" />
  <path
     fill="#4ba855"
     d="m 696.36028,1122.8069 q -1.6,2.39 -3.63,4.87 -3.04,3.71 -3.45,4.94 c -1.96,5.77 1.79,10.07 5.8,14.05 q 0.88,0.88 1.45,2.87 0.84,5.2 0.89,10.57 0.23,23.54 0.01,44.68 a 1.53,1.53 0 0 1 -1.53,1.52 h -92.73 a 1.53,1.53 0 0 1 -1.53,-1.53 v -93.71 a 1.27,1.28 0 0 1 1.27,-1.28 h 93.65 a 0.76,0.77 2.4 0 1 0.76,0.83 z m -15.0286,9.2207 a 4.34,4.34 0 0 0 -4.3248,-4.3551 l -54.6597,-0.1908 a 4.34,4.34 0 0 0 -4.3551,4.3248 l -0.1832,52.4797 a 4.34,4.34 0 0 0 4.3248,4.3551 l 54.6597,0.1908 a 4.34,4.34 0 0 0 4.3551,-4.3248 z"
     id="path151" />
  <rect
     fill="#ffffff"
     x="301.62027"
     y="1127.2069"
     width="63.66"
     height="61.580002"
     rx="4.6100001"
     id="rect151" />
  <path
     fill="#ffffff"
     d="m 469.02028,1128.3869 q 0.45,1.13 0.44,1.97 -0.04,7.73 -0.11,49.5 c 0,4.06 -0.23,8.47 -4.68,8.88 q -1.5,0.14 -4.55,0.13 -42.31,-0.1 -45.99,-0.04 -3.18,0.06 -6.91,-0.52 a 1.25,1.27 86.8 0 1 -1.01,-0.89 q -0.86,-2.91 -0.83,-6.06 0.02,-2.92 0.32,-51.22 a 2.33,2.34 84.6 0 1 1.89,-2.28 q 3.15,-0.61 7.55,-0.6 35.57,0.07 45.25,-0.04 4.04,-0.05 7.84,0.54 a 1.03,1.02 83.2 0 1 0.79,0.63 z"
     id="path152" />
  <rect
     fill="#ffffff"
     x="515.31073"
     y="1126.3531"
     transform="rotate(0.1)"
     width="64.360001"
     height="61.580002"
     rx="4.9200001"
     id="rect152" />
  <rect
     fill="#ffffff"
     x="621.93909"
     y="1125.3025"
     transform="rotate(0.2)"
     width="63.34"
     height="61.16"
     rx="4.3400002"
     id="rect153" />
  <path
     fill="#ffffff"
     d="m 860.04028,1127.7269 c 11.14,0 20.04,-0.33 26.83,0.01 q 2.23,0.11 3.53,0.55 a 2.32,2.33 9.3 0 1 1.59,2.22 q -0.09,23.88 0.1,50.1 0.02,2.96 -0.54,5.39 a 2.66,2.66 0 0 1 -2.08,2.01 q -4.38,0.83 -8.34,0.79 -0.98,0 -21.05,0.01 -20.07,0.01 -21.05,0.02 -3.96,0.04 -8.34,-0.78 a 2.66,2.66 0 0 1 -2.08,-2.01 q -0.57,-2.43 -0.55,-5.39 0.16,-26.22 0.03,-50.1 a 2.33,2.32 80.6 0 1 1.59,-2.22 q 1.3,-0.44 3.53,-0.55 c 6.79,-0.35 15.69,-0.04 26.83,-0.05 z"
     id="path153" />
  <path
     fill="#ffffff"
     d="m 767.11028,1131.1669 q -9.89,10.27 -19.39,17.92 a 1.96,1.97 49.5 0 1 -2.69,-0.2 l -16.31,-17.88 z"
     id="path154" />
  <path
     fill="#4ba855"
     d="m 803.02028,1151.8969 c 1.07,19.2 0.46,38.31 0.63,53.8 a 0.74,0.75 89.6 0 1 -0.75,0.75 h -95.56 a 1.36,1.36 0 0 1 -1.36,-1.36 l 0.08,-44.3 q 7.53,7.13 10.33,10.57 9.68,11.92 20.01,21.66 c 4.67,4.4 11.84,3.44 16.69,0.02 2.28,-1.6 5.23,-3.89 7.6,-6.08 8.49,-7.84 19.04,-16.51 28.12,-25.39 q 5.76,-5.64 11.43,-9.49 a 0.76,0.75 42.7 0 1 0.78,-0.03 q 1.09,0.61 0.98,2.13 a 0.31,0.31 0 0 0 0.31,0.33 h 0.28 a 0.13,0.14 5.2 0 0 0.13,-0.12 z"
     id="path155" />
  <path
     fill="#4ba855"
     d="m 593.00238,1316.033 a 0.32,0.32 0 0 1 -0.3206,0.3194 l -98.0598,-0.1712 a 0.32,0.32 0 0 1 -0.3194,-0.3205 l 0.1756,-100.6399 a 0.32,0.32 0 0 1 0.3206,-0.3194 l 98.0598,0.1712 a 0.32,0.32 0 0 1 0.3194,0.3205 z m -15.3562,-79.35 a 4.43,4.43 0 0 0 -4.4223,-4.4377 l -55.3799,-0.097 a 4.43,4.43 0 0 0 -4.4377,4.4223 l -0.0919,52.6199 a 4.43,4.43 0 0 0 4.4223,4.4377 l 55.3799,0.097 a 4.43,4.43 0 0 0 4.4377,-4.4223 z"
     id="path156" />
  <path
     fill="#4ba855"
     d="m 697.71718,1315.3731 a 0.79,0.79 0 0 1 -0.7886,0.7913 l -94.3999,0.1648 a 0.79,0.79 0 0 1 -0.7914,-0.7886 l -0.1739,-99.6599 a 0.79,0.79 0 0 1 0.7886,-0.7913 l 94.3999,-0.1648 a 0.79,0.79 0 0 1 0.7914,0.7886 z m -16.3169,-79.0762 a 4.2,4.2 0 0 0 -4.2,-4.2 h -55.08 a 4.2,4.2 0 0 0 -4.2,4.2 v 53.2 a 4.2,4.2 0 0 0 4.2,4.2 h 55.08 a 4.2,4.2 0 0 0 4.2,-4.2 z"
     id="path157" />
  <path
     fill="#46904c"
     d="m 803.43028,1216.8269 -90.93,-0.57 a 0.39,0.39 0 0 1 -0.24,-0.7 l 0.67,-0.53 89.82,-0.28 a 0.46,0.46 0 0 1 0.43,0.26 q 0.34,0.66 0.25,1.82 z"
     id="path158" />
  <path
     fill="#4ba855"
     d="m 812.03028,1215.8069 a 0.78,0.79 0 0 1 0.78,-0.79 h 112.53 a 0.48,0.48 0 0 1 0.48,0.49 q -0.47,23.93 -0.26,50.6 0.12,16.44 -0.54,26.88 c -0.25,3.84 -0.85,8.05 -2.59,11.49 -4.91,9.66 -13.38,11.84 -23.55,11.8 q -46.74,-0.17 -85.49,0.03 a 1.36,1.35 89.8 0 1 -1.36,-1.36 z"
     id="path159" />
  <path
     fill="#4ba855"
     d="m 381.13028,1214.9569 a 0.46,0.45 0 0 1 0.46,0.45 v 100.64 a 0.22,0.22 0 0 1 -0.22,0.22 q -34.91,0.05 -78.76,0.04 -8.58,0 -11.85,-1.01 c -7.94,-2.45 -12.64,-8.24 -15.41,-16.67 q -1.3,-3.98 -1.17,-11.66 0.01,-0.75 0.09,-14.86 0.22,-36.78 0.05,-51.95 -0.03,-2.27 0.14,-4.29 a 1,1 0 0 1 1,-0.91 z m -15.6439,21.4256 a 4.42,4.42 0 0 0 -4.4123,-4.4277 l -54.7799,-0.096 a 4.42,4.42 0 0 0 -4.4277,4.4123 l -0.0923,52.8399 a 4.42,4.42 0 0 0 4.4123,4.4277 l 54.7799,0.096 a 4.42,4.42 0 0 0 4.4277,-4.4123 z"
     id="path160" />
  <path
     fill="#4ba855"
     d="m 486.59338,1315.4612 a 0.89,0.89 0 0 1 -0.8915,0.8884 l -94.8799,-0.1656 a 0.89,0.89 0 0 1 -0.8884,-0.8915 l 0.1736,-99.4799 a 0.89,0.89 0 0 1 0.8915,-0.8884 l 94.8799,0.1656 a 0.89,0.89 0 0 1 0.8884,0.8915 z m -16.4171,-78.8988 a 4.37,4.37 0 0 0 -4.3624,-4.3776 l -54.8599,-0.096 a 4.37,4.37 0 0 0 -4.3776,4.3623 l -0.0921,52.76 a 4.37,4.37 0 0 0 4.3624,4.3776 l 54.8599,0.096 a 4.37,4.37 0 0 0 4.3776,-4.3623 z"
     id="path161" />
  <path
     fill="#4ba855"
     d="m 712.93028,1215.0269 -0.67,0.53 a 0.39,0.39 0 0 0 0.24,0.7 l 90.93,0.57 0.3,98.2 a 1.24,1.24 0 0 1 -1.24,1.24 h -95.69 a 0.78,0.78 0 0 1 -0.78,-0.78 v -99.53 a 0.88,0.88 0 0 1 0.87,-0.88 z"
     id="path162" />
  <rect
     fill="#ffffff"
     x="304.02365"
     y="1231.3228"
     transform="rotate(0.1)"
     width="63.619999"
     height="61.68"
     rx="4.4200001"
     id="rect162" />
  <rect
     fill="#ffffff"
     x="617.92023"
     y="1232.0969"
     width="63.48"
     height="61.599998"
     rx="4.1999998"
     id="rect163" />
  <rect
     fill="#ffffff"
     x="408.73376"
     y="1231.37"
     transform="rotate(0.1)"
     width="63.599998"
     height="61.5"
     rx="4.3699999"
     id="rect164" />
  <rect
     fill="#ffffff"
     x="515.56366"
     y="1231.243"
     transform="rotate(0.1)"
     width="64.239998"
     height="61.48"
     rx="4.4299998"
     id="rect165" />
  <path
     fill="#4ba855"
     d="m 244.48028,1268.3969 q 0.02,11.48 -0.07,22.96 c -0.13,15.94 2.99,28.96 14.86,40.37 q 8.05,7.74 18.13,11.67 l -2.38,-0.54 a 0.56,0.56 0 0 0 -0.69,0.55 v 0.31 a 0.63,0.61 12.9 0 0 0.36,0.56 c 6.82,3.17 12.95,4.12 20.53,4.12 23.98,-0.03 47.76,0.47 71.91,0.15 25.94,-0.34 46.81,0.12 71.93,-0.06 q 22.47,-0.16 31.66,0 c 28.33,0.52 54.81,-0.23 80.58,0.03 31.21,0.33 46.05,0.03 79.98,-0.04 39.19,-0.08 62.64,0.28 100.35,-0.06 q 29.36,-0.25 44.92,-0.14 c 28,0.2 45.8,-0.15 72.37,0.4 8.23,0.17 17.35,-0.35 24.7,-0.1 q 3.19,0.11 5.6,1.03 a 1.2,1.2 0 0 1 0.77,1.25 c -0.34,3.29 -1.01,7.83 -1.22,11.54 q -1.43,25.76 -2.56,38.08 -0.69,7.48 -1,15.12 c -0.64,15.58 -2.76,31.81 -4.5,46.37 q -0.25,2.15 -1.48,8.22 -5.75,28.57 -25.07,49.6 c -2.88,3.13 -6.66,6.04 -10.02,9.3 a 1.75,1.73 18 0 1 -0.9,0.45 q -4.44,0.75 -8.36,0.74 -20.65,-0.09 -41.29,-0.05 -108.27,-0.06 -216.55,-0.04 c -33.78,0.01 -63.69,-0.41 -97.66,-0.05 -39.02,0.41 -119.26,-0.17 -177.99,-0.13 -11.38,0.01 -23.04,-0.16 -33.85,-2.51 q -12.33,-2.68 -21.71,-7.07 -1.85,-0.87 -11.59,-6.31 -4.84,-2.71 -9.74,-6.87 -8.9,-7.56 -9.27,-7.95 c -16.62,-16.91 -29.13,-38.11 -32.01,-63.28 -0.37,-3.28 -1.28,-8.91 -1.67,-13.57 q -6.12,-73.36 -11.61,-146.97 4.96,6.97 12.82,9.21 10.9,3.1 21,1.55 7.22,-1.11 15.11,-7.8 6.77,-5.75 14.64,-13.84 c 5.29,-5.43 12.17,-10.78 20.46,-9.32 a 0.57,0.57 0 0 1 0.48,0.56 z"
     id="path165" />
</svg>
